<svg width="32" height="32" fill="none" viewBox="0 0 32 32">
	<style>
    	@media (prefers-color-scheme: dark) {
			.a { fill: #f1f2f2 }
			.m { mix-blend-mode: overlay }
		}
	</style>
	<g class="a" fill="#16191B">
		<path fill-rule="evenodd" d="M18 1.155a4 4 0 0 0-4 0l-9.856 5.69a4 4 0 0 0-2 3.464v11.382a4 4 0 0 0 2 3.464L14 30.845a4 4 0 0 0 4 0l9.856-5.69a4 4 0 0 0 2-3.464V10.309a4 4 0 0 0-2-3.464L18 1.155Zm3.928 10.268a2 2 0 0 1 .989 1.52c.007.07.011.14.011.212v5.69a2 2 0 0 1-1 1.732L17 23.423a.667.667 0 0 1-1-.578v-5.694a2 2 0 0 0-1-1.732l-4.929-2.846a.667.667 0 0 1-.059-1.116L15 8.577a2 2 0 0 1 2 0l4.928 2.846Z" clip-rule="evenodd"/>
		<g class="m" style="mix-blend-mode:multiply">
			<path d="M22.661 12.156a2.012 2.012 0 0 1 .267.998v5.691a2 2 0 0 1-1 1.732L17 23.423a.667.667 0 0 1-1-.578v-5.694a2 2 0 0 0-.267-.998l6.928-3.996Z" opacity=".6"/>
			<path d="M15.733 16.153a2 2 0 0 0-.733-.734l-4.929-2.846a.667.667 0 0 1-.059-1.116L15 8.577a2 2 0 0 1 2 0l4.928 2.846c.313.18.566.44.739.743l-.006-.01-6.928 3.997Z" opacity=".8"/>
		</g>
	</g>
</svg>
